<?xml version="1.0" encoding="UTF-8"?>
<svg version="1.1" xmlns="http://www.w3.org/2000/svg" width="722" height="228">
<path d="M0 0 C2.74166462 0.03701953 5.45776635 0.21898143 8.19140625 0.421875 C9.60459082 0.4821415 11.01802249 0.53688193 12.43164062 0.5859375 C15.87757222 0.71749607 19.31415568 0.9240223 22.75390625 1.171875 C23.07439941 1.74292969 23.39489258 2.31398437 23.72509766 2.90234375 C30.51353482 14.98561782 37.38079533 27.01748148 44.3815918 38.97900391 C50.57959838 49.57078238 56.7066924 60.20299677 62.83203125 70.83691406 C65.46547151 75.40662874 68.10285337 79.97406311 70.74023438 84.54150391 C72.63171884 87.8184676 74.52116528 91.09659847 76.41015625 94.375 C78.42355451 97.86897152 80.44286674 101.35927802 82.47265625 104.84375 C83.21225332 106.1197837 83.95183809 107.39582454 84.69140625 108.671875 C85.29855469 109.7134375 85.90570313 110.755 86.53125 111.828125 C87.75390625 114.171875 87.75390625 114.171875 87.75390625 116.171875 C63.52083326 118.7110597 63.52083326 118.7110597 56.34619141 113.38427734 C52.1650455 108.36495301 49.72446041 102.4101189 47.20703125 96.43212891 C44.71464312 90.84016804 41.50765904 85.6753303 38.37890625 80.421875 C37.11730518 78.23916457 35.85952134 76.05424355 34.60546875 73.8671875 C30.65998953 67.00750265 26.70784376 60.15168632 22.75390625 53.296875 C22.15529785 52.25821289 21.55668945 51.21955078 20.93994141 50.14941406 C20.3629248 49.1487793 19.7859082 48.14814453 19.19140625 47.1171875 C18.63195312 46.14555664 18.0725 45.17392578 17.49609375 44.17285156 C16.26272845 42.04833835 15.01664721 39.93118369 13.76171875 37.81933594 C13.11976562 36.7368457 12.4778125 35.65435547 11.81640625 34.5390625 C10.93662109 33.06735596 10.93662109 33.06735596 10.0390625 31.56591797 C8.75390625 29.171875 8.75390625 29.171875 8.75390625 27.171875 C8.09390625 27.171875 7.43390625 27.171875 6.75390625 27.171875 C6.52703125 27.996875 6.30015625 28.821875 6.06640625 29.671875 C4.47964393 33.90324118 2.24642388 37.42358513 -0.24609375 41.171875 C-4.60718943 37.41446321 -7.19510294 32.64587614 -10.05859375 27.734375 C-10.83106445 26.4649707 -10.83106445 26.4649707 -11.61914062 25.16992188 C-12.10060547 24.34685547 -12.58207031 23.52378906 -13.078125 22.67578125 C-13.51874268 21.93142822 -13.95936035 21.1870752 -14.41333008 20.42016602 C-15.83609749 16.57898599 -14.47729411 13.82894341 -13.15991211 10.08496094 C-9.93571596 3.30430613 -7.74636446 0.40373209 0 0 Z " fill="#4F46E5" transform="translate(102.24609375,53.828125)"/>
<path d="M0 0 C8.25180335 5.72000005 12.63124604 13.32342563 15.75 22.6796875 C16.75446816 35.04617252 14.98192432 46.03823836 6.8046875 55.70703125 C-1.85054878 64.01671627 -11.76053323 66.19956422 -23.46484375 65.98046875 C-34.03909722 65.14020299 -41.25603737 60.53211486 -48.25 52.6796875 C-54.59848579 43.8871837 -56.31997646 34.37945212 -55.25 23.6796875 C-53.06219397 13.95901639 -48.01039145 6.08322907 -39.875 0.3046875 C-27.09292207 -7.4420264 -12.98816092 -7.62152499 0 0 Z M-32.25 20.6796875 C-34.69563354 25.01101155 -35.70849858 29.01961251 -34.6875 33.9296875 C-33.01869529 38.98636685 -30.68543521 41.83531384 -26.0625 44.5546875 C-21.40306295 45.92960335 -17.91085493 46.05502174 -13.25 44.6796875 C-8.23601371 41.52273317 -5.88916005 38.36853708 -4.25 32.6796875 C-3.9868449 27.02185281 -5.58878257 23.05280831 -9.25 18.6796875 C-13.1751326 15.11138514 -17.43169124 15.10578896 -22.5234375 15.27734375 C-26.79914379 15.90828608 -29.50333 17.33388551 -32.25 20.6796875 Z " fill="#4F46E5" transform="translate(110.25,107.3203125)"/>
<path d="M0 0 C1.65322266 0.01740234 1.65322266 0.01740234 3.33984375 0.03515625 C4.99693359 0.04869141 4.99693359 0.04869141 6.6875 0.0625 C7.54214844 0.07410156 8.39679688 0.08570312 9.27734375 0.09765625 C18.46327531 21.35283542 27.43974024 42.69464437 36.34216309 64.06999207 C37.85381863 67.69915407 39.36980655 71.32562012 40.92236328 74.9375 C41.3811084 76.01128906 41.83985352 77.08507812 42.3125 78.19140625 C42.69929932 79.08537109 43.08609863 79.97933594 43.48461914 80.90039062 C44.27734375 83.09765625 44.27734375 83.09765625 44.27734375 86.09765625 C38.99734375 86.09765625 33.71734375 86.09765625 28.27734375 86.09765625 C25.30734375 79.16765625 22.33734375 72.23765625 19.27734375 65.09765625 C8.71734375 65.09765625 -1.84265625 65.09765625 -12.72265625 65.09765625 C-15.69265625 72.02765625 -18.66265625 78.95765625 -21.72265625 86.09765625 C-27.33265625 86.09765625 -32.94265625 86.09765625 -38.72265625 86.09765625 C-30.14798863 64.25481874 -21.07197757 42.62015681 -12.0140686 20.97445679 C-10.34783724 16.99252882 -8.68293825 13.01029042 -7.04150391 9.01806641 C-6.59210449 7.92671387 -6.14270508 6.83536133 -5.6796875 5.7109375 C-5.31464111 4.81802002 -4.94959473 3.92510254 -4.57348633 3.00512695 C-3.2856115 0.11784833 -3.2856115 0.11784833 0 0 Z M2.27734375 21.09765625 C-1.02265625 30.66765625 -4.32265625 40.23765625 -7.72265625 50.09765625 C-0.79265625 50.09765625 6.13734375 50.09765625 13.27734375 50.09765625 C11.54818937 43.27710286 9.51564131 36.61839462 7.21484375 29.97265625 C6.95751465 29.21412354 6.70018555 28.45559082 6.43505859 27.67407227 C5.29063561 23.65085578 5.29063561 23.65085578 2.27734375 21.09765625 Z " fill="#1E1B4B" transform="translate(244.72265625,69.90234375)"/>
<path d="M0 0 C9.83351144 6.66712075 14.61329229 13.74465625 17.5703125 25.19921875 C17.953125 28.32421875 17.953125 28.32421875 16.953125 36.32421875 C0.123125 36.32421875 -16.706875 36.32421875 -34.046875 36.32421875 C-31.16836413 43.10212686 -31.16836413 43.10212686 -26.546875 47.26171875 C-25.69609375 47.83212891 -25.69609375 47.83212891 -24.828125 48.4140625 C-20.49669454 50.62727148 -15.83136286 50.83396792 -11.046875 50.32421875 C-7.68248439 49.14668204 -4.95562086 48.166874 -2.328125 45.73046875 C0.92657758 43.72414524 4.00849073 44.00052713 7.703125 44.13671875 C8.40050781 44.15025391 9.09789062 44.16378906 9.81640625 44.17773438 C11.52898041 44.21292425 13.24115441 44.2667272 14.953125 44.32421875 C14.09756686 51.15663379 9.42387195 55.54451538 4.20703125 59.72265625 C-3.79466372 64.46308133 -15.54162842 65.25933293 -24.484375 63.32421875 C-33.95760936 60.39355738 -41.29645375 54.72680705 -46.30078125 46.18359375 C-50.21790978 37.93988075 -50.53175613 28.64909987 -48.09375 19.90625 C-44.35933008 10.39293344 -39.18833401 4.11122883 -30.046875 -0.67578125 C-20.92209323 -3.85431897 -8.74159662 -4.75449435 0 0 Z M-28.421875 13.63671875 C-31.74650555 17.04050717 -34.046875 19.46196893 -34.046875 24.32421875 C-21.506875 24.32421875 -8.966875 24.32421875 3.953125 24.32421875 C1.25010985 18.01718339 -0.3785486 14.85409903 -5.859375 11.07421875 C-13.43371605 8.47730182 -21.92031703 8.53524876 -28.421875 13.63671875 Z " fill="#1E1B4B" transform="translate(383.046875,93.67578125)"/>
<path d="M0 0 C3.67163592 2.29477245 6.84864294 4.9152148 10 7.875 C10.33 5.235 10.66 2.595 11 -0.125 C15.29 -0.125 19.58 -0.125 24 -0.125 C24 20.995 24 42.115 24 63.875 C19.71 63.875 15.42 63.875 11 63.875 C10.505 59.915 10.505 59.915 10 55.875 C9.319375 56.6175 8.63875 57.36 7.9375 58.125 C2.56242067 63.48485247 -3.13113312 65.60818159 -10.625 66.125 C-19.37367826 65.99244427 -27.41826048 63.22462496 -33.7734375 57.19140625 C-41.45350641 49.13867577 -43.60518437 41.09199432 -43.47290039 30.20776367 C-43.11499303 21.48316563 -40.81823003 13.81048465 -34.703125 7.37109375 C-25.47787755 -0.732736 -11.89272548 -4.57829295 0 0 Z M-25.703125 19.9609375 C-29.52277293 25.59836969 -29.74146931 31.26665478 -29 37.875 C-27.24133583 43.80049917 -24.0458629 47.44381323 -19 50.875 C-13.47948999 53.39523283 -8.18847821 53.92159972 -2.44140625 52.03515625 C3.73714393 49.30851524 7.33104855 46.11910502 10 39.875 C11.98664863 33.10233421 11.00870349 27.5619748 8.2734375 21.1796875 C5.74856346 16.61013019 1.7987728 13.84438884 -3 11.875 C-12.96111857 10.80674634 -19.18153281 12.28228863 -25.703125 19.9609375 Z " fill="#1E1B4B" transform="translate(643,92.125)"/>
<path d="M0 0 C7.57797226 4.57835824 10.52378271 8.27651392 13 16.8125 C13.48274787 20.58308562 13.47089013 24.27400662 13.390625 28.0703125 C13.38496521 29.09937714 13.37930542 30.12844177 13.37347412 31.18869019 C13.35128703 34.43878974 13.30112415 37.68774011 13.25 40.9375 C13.22991216 43.15623395 13.21166542 45.37498538 13.1953125 47.59375 C13.15148023 53.0004351 13.0825766 58.40627349 13 63.8125 C8.38 63.8125 3.76 63.8125 -1 63.8125 C-1.01458252 62.61238281 -1.02916504 61.41226563 -1.04418945 60.17578125 C-1.10245018 55.69518215 -1.17968033 51.21507107 -1.26245117 46.73486328 C-1.29557037 44.80102498 -1.32364224 42.86709304 -1.34643555 40.93310547 C-1.38022185 38.14250021 -1.4325483 35.35274309 -1.48828125 32.5625 C-1.49467117 31.70696533 -1.5010611 30.85143066 -1.50764465 29.9699707 C-1.64444664 24.30105777 -2.5731296 19.96615489 -5 14.8125 C-9.46137989 11.83824674 -13.76774934 12.31382508 -19 12.8125 C-22.77291507 14.38454794 -24.88617839 16.32469434 -27 19.8125 C-27.82990368 22.5593564 -28.14191797 25.07622573 -28.20532227 27.93847656 C-28.22526749 28.73900452 -28.24521271 29.53953247 -28.26576233 30.36431885 C-28.29083107 31.64577789 -28.29083107 31.64577789 -28.31640625 32.953125 C-28.33718735 33.83530701 -28.35796844 34.71748901 -28.37937927 35.62640381 C-28.44464867 38.43835831 -28.50365447 41.25040445 -28.5625 44.0625 C-28.60570673 45.97136356 -28.64932171 47.88021793 -28.69335938 49.7890625 C-28.80030687 54.46344826 -28.90163785 59.13792602 -29 63.8125 C-33.62 63.8125 -38.24 63.8125 -43 63.8125 C-43 42.6925 -43 21.5725 -43 -0.1875 C-38.71 -0.1875 -34.42 -0.1875 -30 -0.1875 C-29.67 1.7925 -29.34 3.7725 -29 5.8125 C-28.45730469 5.39097656 -27.91460937 4.96945313 -27.35546875 4.53515625 C-26.64003906 3.98730469 -25.92460937 3.43945312 -25.1875 2.875 C-24.47980469 2.32972656 -23.77210938 1.78445312 -23.04296875 1.22265625 C-17.15187566 -2.84366231 -6.53870875 -2.60664741 0 0 Z " fill="#1E1B4B" transform="translate(451,92.1875)"/>
<path d="M0 0 C4.43789378 2.66461276 7.7030807 6.3806603 9.0234375 11.4453125 C9.3125 13.375 9.3125 13.375 9.5 16.4375 C7.23020335 16.54544277 4.95894804 16.62306176 2.6875 16.6875 C1.42292969 16.73390625 0.15835938 16.7803125 -1.14453125 16.828125 C-4.5 16.4375 -4.5 16.4375 -6.2265625 14.4453125 C-6.64679687 13.78273438 -7.06703125 13.12015625 -7.5 12.4375 C-11.04213985 11.93742206 -11.04213985 11.93742206 -14.5 12.4375 C-16.84973818 14.33505144 -16.84973818 14.33505144 -16.625 17.5625 C-16.58375 18.51125 -16.5425 19.46 -16.5 20.4375 C-15.92556152 20.65365967 -15.35112305 20.86981934 -14.75927734 21.0925293 C-12.12639117 22.09120111 -9.50082131 23.1079051 -6.875 24.125 C-5.97136719 24.46466797 -5.06773437 24.80433594 -4.13671875 25.15429688 C1.93742621 27.52631699 7.28079197 29.90694178 10.875 35.625 C12.40126712 42.49320206 12.24721223 48.51274644 8.69921875 54.6875 C4.95091835 60.15733251 0.56877068 63.60320948 -5.9765625 64.9453125 C-12.64877874 65.82867634 -18.36799679 65.3316281 -24.5 62.4375 C-27.4375 60 -27.4375 60 -29.5 57.4375 C-30.3353125 56.57125 -30.3353125 56.57125 -31.1875 55.6875 C-33.22554224 52.1937133 -33.78269549 48.38689427 -34.5 44.4375 C-32.08063683 44.27500546 -29.67218141 44.15652183 -27.25 44.0625 C-26.56808594 44.01222656 -25.88617187 43.96195313 -25.18359375 43.91015625 C-23.171875 43.8515625 -23.171875 43.8515625 -19.5 44.4375 C-17.234375 47.40234375 -17.234375 47.40234375 -15.5 50.4375 C-11.56385777 51.49182381 -8.36982285 51.83063623 -4.5 50.4375 C-3.64612895 47.13182511 -3.64612895 47.13182511 -3.5 43.4375 C-7.11493597 38.39639751 -13.31517998 36.75749612 -18.85742188 34.52539062 C-24.39732054 32.1983578 -28.9968613 29.87649915 -31.53125 24.078125 C-33.02835174 16.44290612 -31.78992895 11.25404825 -27.8125 4.625 C-20.30910958 -2.47280175 -9.60500401 -4.20218925 0 0 Z " fill="#1E1B4B" transform="translate(561.5,92.5625)"/>
<path d="M0 0 C4.95 0 9.9 0 15 0 C18.98963349 9.30671358 22.46599377 18.69846036 25.8125 28.25 C28.3803125 35.55125 28.3803125 35.55125 31 43 C38.425 21.715 38.425 21.715 46 0 C51.28 0 56.56 0 62 0 C61.32667052 3.3666474 60.77854868 5.86544123 59.54467773 8.93798828 C59.25024277 9.67711456 58.9558078 10.41624084 58.65245056 11.17776489 C58.17286644 12.36207596 58.17286644 12.36207596 57.68359375 13.5703125 C57.34884537 14.40601776 57.01409698 15.24172302 56.66920471 16.10275269 C55.95752031 17.87709535 55.24375911 19.65060622 54.52807617 21.42333984 C53.46147865 24.06559822 52.40102557 26.71024907 51.34179688 29.35546875 C46.68554998 40.95681251 41.88631403 52.49380984 37 64 C33.04 64 29.08 64 25 64 C21.50776358 56.43704665 18.23455752 48.82578582 15.13671875 41.09375 C14.48144951 39.4630658 14.48144951 39.4630658 13.8129425 37.79943848 C12.89990715 35.52438498 11.98823486 33.24878401 11.07788086 30.97265625 C9.67928633 27.47948529 8.27241826 23.98971824 6.86523438 20.5 C5.97605729 18.28145242 5.08736766 16.06270939 4.19921875 13.84375 C3.77742844 12.80005249 3.35563812 11.75635498 2.92106628 10.68103027 C2.5367897 9.71572388 2.15251312 8.75041748 1.7565918 7.75585938 C1.41637497 6.90745483 1.07615814 6.05905029 0.72563171 5.18493652 C0 3 0 3 0 0 Z " fill="#1E1B4B" transform="translate(274,92)"/>
<path d="M0 0 C4.62 0 9.24 0 14 0 C14 7.26 14 14.52 14 22 C17.3 22 20.6 22 24 22 C24 26.29 24 30.58 24 35 C20.7 35 17.4 35 14 35 C14 51.83 14 68.66 14 86 C9.38 86 4.76 86 0 86 C0 69.17 0 52.34 0 35 C-2.64 35 -5.28 35 -8 35 C-8 30.71 -8 26.42 -8 22 C-5.36 22 -2.72 22 0 22 C0 14.74 0 7.48 0 0 Z " fill="#1E1B4B" transform="translate(477,70)"/>
<path d="M0 0 C4.95 0 9.9 0 15 0 C15 21.12 15 42.24 15 64 C10.05 64 5.1 64 0 64 C0 42.88 0 21.76 0 0 Z " fill="#1E1B4B" transform="translate(578,92)"/>
<path d="M0 0 C4.62 0 9.24 0 14 0 C14 21.12 14 42.24 14 64 C9.38 64 4.76 64 0 64 C0 42.88 0 21.76 0 0 Z " fill="#1E1B4B" transform="translate(507,92)"/>
<path d="M0 0 C4.62 0 9.24 0 14 0 C14 4.62 14 9.24 14 14 C9.38 14 4.76 14 0 14 C0 9.38 0 4.76 0 0 Z " fill="#1E1B4B" transform="translate(579,70)"/>
<path d="M0 0 C4.62 0 9.24 0 14 0 C14 4.62 14 9.24 14 14 C9.38 14 4.76 14 0 14 C0 9.38 0 4.76 0 0 Z " fill="#1E1B4B" transform="translate(507,70)"/>
</svg>
